<svg width="550" height="401" viewBox="0 0 550 401" fill="none" xmlns="http://www.w3.org/2000/svg">
<g clip-path="url(#clip0_1_2)">
<path d="M550.587 217C550.761 217.294 551.005 217.664 551 217.996C550.05 245.036 538.84 273.558 522.099 296.433C438.984 410.006 238.864 429.208 111.66 363.059C59.0415 335.696 20.5591 296.924 5.3762 245.396C3.12067 236.678 0.549361 225.909 0 217C12.2244 219.907 35.6356 224.081 48.2931 225.343C71.0851 227.606 93.9232 229.513 116.796 231.06C120.326 266.579 132.746 298.728 160.19 326.114C187.195 352.229 224.093 370.047 265.028 372.066C364.657 376.983 429.446 310.442 435.536 230.092C462.929 229.732 526.518 224.754 550.587 217Z" fill="black"/>
<path d="M268.007 0.0780741C350.157 -1.55806 436.86 22.4935 493.712 74.8452C524.828 103.502 547.286 140.463 550 180C506.499 169.225 479.861 167.408 435.128 164.669C432.453 134.752 418.51 101.637 395.812 78.7871C366.064 48.8332 331.247 32.872 285.684 29.2637C246.217 27.0631 207.307 38.1671 177.248 60.2084C140.687 86.7523 120.628 124.794 116.646 165.35C76.367 168.468 41.1701 170.251 1 178.436C16.8009 63.9004 143.802 4.02695 268.007 0.0780741Z" fill="black"/>
<path d="M543.645 196.239C466.153 202.314 352.661 203.5 269.25 203.5C218.96 202.573 136.521 201.901 86.4486 199.952C66.275 199.199 46.1118 198.319 25.9627 197.312C22.3573 197.12 2.52631 195.685 0.812656 195.808C-0.0699539 196.83 -0.300659 198.246 0.455476 199.318C8.2448 201.086 40.2071 203.006 49.7231 203.56C115.606 207.146 196.153 208.934 262.254 209.129C262.623 208.858 316.305 209.343 316.75 209.133C368.214 208.825 405.174 207.87 456.567 206.056C467.901 205.588 543.791 201.955 549.675 198.732C550.115 197.428 550.169 198.058 549.453 196.779C547.531 195.812 545.876 196.062 543.645 196.239Z" fill="black"/>
<g clip-path="url(#clip1_1_2)">
<path d="M310.612 120.08C292.995 159.65 308.836 205.278 345.924 221.79C347.25 222.381 369.895 233.839 369.265 235.254C368.635 236.668 344.967 227.507 343.641 226.916C306.553 210.404 262.046 229.163 244.428 268.733C243.798 270.147 208.622 346.257 207.296 345.667C205.97 345.077 238.994 268.008 239.624 266.593C257.241 227.024 241.4 181.396 204.312 164.883C202.986 164.293 181.984 153.566 182.614 152.151C183.244 150.736 205.268 159.167 206.595 159.757C243.682 176.27 288.19 157.511 305.808 117.941C306.438 116.526 337.982 48.5737 339.308 49.1641C340.634 49.7544 311.242 118.665 310.612 120.08Z" fill="black" stroke="black" stroke-width="4"/>
</g>
</g>
<defs>
<clipPath id="clip0_1_2">
<rect width="550" height="401" fill="white"/>
</clipPath>
<clipPath id="clip1_1_2">
<rect x="465.598" y="9.91223" width="466.279" height="276.609" transform="rotate(112.962 465.598 9.91223)" fill="white"/>
</clipPath>
</defs>
</svg>
