<svg width="550" height="401" viewBox="0 0 550 401" fill="none" xmlns="http://www.w3.org/2000/svg">
<g clip-path="url(#clip0_7_10)">
<path d="M543.645 196.239C466.153 202.314 352.661 203.5 269.25 203.5C218.96 202.573 136.521 201.901 86.4486 199.952C66.275 199.199 46.1118 198.319 25.9627 197.312C22.3573 197.12 2.52631 195.685 0.812656 195.808C-0.0699539 196.83 -0.300659 198.246 0.455476 199.318C8.2448 201.086 40.2071 203.006 49.7231 203.56C115.606 207.146 196.153 208.934 262.254 209.129C262.623 208.858 316.305 209.343 316.75 209.133C368.214 208.825 405.174 207.87 456.567 206.056C467.901 205.588 543.791 201.955 549.675 198.732C550.115 197.428 550.169 198.058 549.453 196.779C547.531 195.812 545.876 196.062 543.645 196.239Z" fill="white"/>
<g clip-path="url(#clip1_7_10)">
<path d="M312.635 129.848C294.529 170.515 310.809 217.408 348.925 234.378C350.288 234.985 373.56 246.761 372.913 248.214C372.266 249.668 347.942 240.253 346.579 239.646C308.463 222.676 262.721 241.955 244.615 282.621C243.968 284.075 207.817 362.295 206.454 361.689C205.092 361.082 239.03 281.877 239.678 280.423C257.784 239.756 241.504 192.863 203.388 175.893C202.025 175.286 180.441 164.262 181.088 162.808C181.735 161.354 204.37 170.018 205.733 170.625C243.849 187.595 289.591 168.316 307.697 127.65C308.344 126.196 340.763 56.3594 342.125 56.9662C343.488 57.5729 313.282 128.394 312.635 129.848Z" fill="white" stroke="white" stroke-width="4"/>
</g>
</g>
<defs>
<clipPath id="clip0_7_10">
<rect width="550" height="401" fill="white"/>
</clipPath>
<clipPath id="clip1_7_10">
<rect x="461.971" y="89.2233" width="350.219" height="312.643" transform="rotate(112.962 461.971 89.2233)" fill="white"/>
</clipPath>
</defs>
</svg>
